<?xml version="1.0" encoding="UTF-8"?>
<svg version="1.1" xmlns="http://www.w3.org/2000/svg"
     width="1024" height="1024" shape-rendering="crispEdges">
    <rect x="0" y="0"
          width="1024" height="1024"
          fill="#FFFFFF"
    />

    <!--this part was not fun at all-->
    <rect x="0"   y="0" width="128" height="128" fill="#4CAF50"/>
    <rect x="128" y="0" width="128" height="128" fill="#43A047"/>
    <rect x="256" y="0" width="128" height="128" fill="#388E3C"/>
    <rect x="384" y="0" width="128" height="128" fill="#43A047"/>
    <rect x="512" y="0" width="128" height="128" fill="#4CAF50"/>
    <rect x="640" y="0" width="128" height="128" fill="#43A047"/>
    <rect x="768" y="0" width="128" height="128" fill="#388E3C"/>
    <rect x="896" y="0" width="128" height="128" fill="#388E3C"/>

    <rect x="0"   y="128" width="128" height="128" fill="#43A047"/>
    <rect x="128" y="128" width="128" height="128" fill="#4CAF50"/>
    <rect x="256" y="128" width="128" height="128" fill="#388E3C"/>
    <rect x="384" y="128" width="128" height="128" fill="#388E3C"/>
    <rect x="512" y="128" width="128" height="128" fill="#43A047"/>
    <rect x="640" y="128" width="128" height="128" fill="#388E3C"/>
    <rect x="768" y="128" width="128" height="128" fill="#43A047"/>
    <rect x="896" y="128" width="128" height="128" fill="#388E3C"/>

    <rect x="0"   y="256" width="128" height="128" fill="#388E3C"/>
    <rect x="128" y="256" width="128" height="128" fill="#388E3C"/>
    <rect x="256" y="256" width="128" height="128" fill="#43A047"/>
    <rect x="384" y="256" width="128" height="128" fill="#5D4037"/>
    <rect x="512" y="256" width="128" height="128" fill="#388E3C"/>
    <rect x="640" y="256" width="128" height="128" fill="#388E3C"/>
    <rect x="768" y="256" width="128" height="128" fill="#5D4037"/>
    <rect x="896" y="256" width="128" height="128" fill="#43A047"/>

    <rect x="0"   y="384" width="128" height="128" fill="#6D4C41"/>
    <rect x="128" y="384" width="128" height="128" fill="#43A047"/>
    <rect x="256" y="384" width="128" height="128" fill="#5D4037"/>
    <rect x="384" y="384" width="128" height="128" fill="#5D4037"/>
    <rect x="512" y="384" width="128" height="128" fill="#388E3C"/>
    <rect x="640" y="384" width="128" height="128" fill="#6D4C41"/>
    <rect x="768" y="384" width="128" height="128" fill="#6D4C41"/>
    <rect x="896" y="384" width="128" height="128" fill="#6D4C41"/>

    <rect x="0"   y="512" width="128" height="128" fill="#5D4037"/>
    <rect x="128" y="512" width="128" height="128" fill="#6D4C41"/>
    <rect x="256" y="512" width="128" height="128" fill="#757575"/>
    <rect x="384" y="512" width="128" height="128" fill="#6D4C41"/>
    <rect x="512" y="512" width="128" height="128" fill="#5D4037"/>
    <rect x="640" y="512" width="128" height="128" fill="#5D4037"/>
    <rect x="768" y="512" width="128" height="128" fill="#6D4C41"/>
    <rect x="896" y="512" width="128" height="128" fill="#5D4037"/>

    <rect x="0"   y="640" width="128" height="128" fill="#6D4C41"/>
    <rect x="128" y="640" width="128" height="128" fill="#795548"/>
    <rect x="256" y="640" width="128" height="128" fill="#795548"/>
    <rect x="384" y="640" width="128" height="128" fill="#6D4C41"/>
    <rect x="512" y="640" width="128" height="128" fill="#6D4C41"/>
    <rect x="640" y="640" width="128" height="128" fill="#6D4C41"/>
    <rect x="768" y="640" width="128" height="128" fill="#795548"/>
    <rect x="896" y="640" width="128" height="128" fill="#757575"/>

    <rect x="0"   y="768" width="128" height="128" fill="#6D4C41"/>
    <rect x="128" y="768" width="128" height="128" fill="#6D4C41"/>
    <rect x="256" y="768" width="128" height="128" fill="#6D4C41"/>
    <rect x="384" y="768" width="128" height="128" fill="#5D4037"/>
    <rect x="512" y="768" width="128" height="128" fill="#6D4C41"/>
    <rect x="640" y="768" width="128" height="128" fill="#795548"/>
    <rect x="768" y="768" width="128" height="128" fill="#6D4C41"/>
    <rect x="896" y="768" width="128" height="128" fill="#6D4C41"/>

    <rect x="0"   y="896" width="128" height="128" fill="#6D4C41"/>
    <rect x="128" y="896" width="128" height="128" fill="#5D4037"/>
    <rect x="256" y="896" width="128" height="128" fill="#5D4037"/>
    <rect x="384" y="896" width="128" height="128" fill="#757575"/>
    <rect x="512" y="896" width="128" height="128" fill="#6D4C41"/>
    <rect x="640" y="896" width="128" height="128" fill="#6D4C41"/>
    <rect x="768" y="896" width="128" height="128" fill="#5D4037"/>
    <rect x="896" y="896" width="128" height="128" fill="#6D4C41"/>
</svg>